<?xml version="1.0" encoding="utf-8"?>
<svg version="1.1" xmlns:xlink="http://www.w3.org/1999/xlink" width="36px" height="25px" xmlns="http://www.w3.org/2000/svg">
  <g transform="matrix(1 0 0 1 -387 -666 )">
    <path d="M 20.375278396436528 21.01111778846154  C 20.502227171492205 20.915965544871796  20.56570155902004 20.79827724358974  20.56570155902004 20.658052884615387  L 20.56570155902004 17.803485576923077  C 20.56570155902004 17.663261217948715  20.502227171492205 17.545572916666664  20.375278396436528 17.450420673076923  C 20.248329621380847 17.355268429487182  20.097995545657017 17.307692307692307  19.924276169265035 17.307692307692307  L 16.075723830734965 17.307692307692307  C 15.902004454342984 17.307692307692307  15.751670378619155 17.355268429487182  15.624721603563474 17.450420673076923  C 15.497772828507795 17.545572916666664  15.434298440979955 17.663261217948715  15.434298440979955 17.803485576923077  L 15.434298440979955 20.658052884615387  C 15.434298440979955 20.79827724358974  15.497772828507795 20.915965544871796  15.624721603563474 21.01111778846154  C 15.751670378619155 21.10627003205128  15.902004454342984 21.153846153846153  16.075723830734965 21.153846153846153  L 19.924276169265035 21.153846153846153  C 20.097995545657017 21.153846153846153  20.248329621380847 21.10627003205128  20.375278396436528 21.01111778846154  Z M 20.315144766146993 15.286959134615385  C 20.442093541202674 15.221854967948717  20.51224944320713 15.139222756410255  20.525612472160354 15.0390625  L 20.886414253897552 8.143028846153847  C 20.886414253897552 8.022836538461538  20.819599109131403 7.927684294871792  20.68596881959911 7.857572115384615  C 20.512249443207132 7.747395833333331  20.35189309576838 7.6923076923076925  20.20489977728285 7.6923076923076925  L 15.79510022271715 7.6923076923076925  C 15.648106904231629 7.6923076923076925  15.487750556792875 7.747395833333331  15.31403118040089 7.857572115384615  C 15.180400890868599 7.927684294871792  15.11358574610245 8.03285256410256  15.11358574610245 8.173076923076922  L 15.454342984409799 15.0390625  C 15.454342984409799 15.139222756410255  15.521158129175948 15.221854967948717  15.65478841870824 15.286959134615385  C 15.788418708240537 15.352063301282048  15.948775055679288 15.384615384615385  16.135857461024496 15.384615384615385  L 19.844097995545656 15.384615384615385  C 20.031180400890868 15.384615384615385  20.188195991091312 15.352063301282048  20.315144766146993 15.286959134615385  Z M 19.302895322939868 0.27043269230769273  C 19.70378619153675 0.45072115384615363  20.017817371937642 0.6961137820512803  20.244988864142538 1.0066105769230782  L 35.639198218262806 22.160456730769234  C 36.10690423162584 22.791466346153847  36.093541202672604 23.42247596153846  35.59910913140312 24.053485576923077  C 35.37193763919822 24.343950320512818  35.06124721603564 24.574318910256412  34.66703786191537 24.744591346153847  C 34.272828507795104 24.91486378205128  33.84855233853007 25  33.394209354120264 25  L 2.605790645879733 25  C 2.151447661469933 25  1.7271714922049 24.91486378205128  1.3329621380846326 24.744591346153847  C 0.9387527839643652 24.574318910256412  0.6280623608017818 24.343950320512818  0.40089086859688194 24.053485576923077  C -0.09354120267260581 23.42247596153846  -0.10690423162583522 22.791466346153847  0.3608017817371938 22.160456730769234  L 15.755011135857462 1.0066105769230782  C 15.982182628062365 0.6961137820512803  16.296213808463254 0.45072115384615363  16.697104677060132 0.27043269230769273  C 17.097995545657017 0.09014423076923184  17.532293986636972 0  18 0  C 18.46770601336303 0  18.902004454342986 0.09014423076923184  19.302895322939868 0.27043269230769273  Z " fill-rule="nonzero" fill="#232020" stroke="none" transform="matrix(1 0 0 1 387 666 )" />
  </g>
</svg>