<?xml version="1.0" encoding="utf-8"?>
<svg version="1.1" xmlns:xlink="http://www.w3.org/1999/xlink" width="24px" height="29px" xmlns="http://www.w3.org/2000/svg">
  <g transform="matrix(1 0 0 1 -437 -345 )">
    <path d="M 23.703125 23.630468749999988  C 23.901041666666686 23.917447916666692  24 24.257291666666692  24 24.649999999999988  L 24 27.549999999999976  C 24 27.942708333333332  23.901041666666686 28.282552083333332  23.703125 28.569531249999976  C 23.505208333333314 28.856510416666676  23.270833333333314 29  23 29  L 1 29  C 0.7291666666666856 29  0.4947916666666856 28.856510416666676  0.296875 28.569531249999976  C 0.09895833333331439 28.282552083333332  0 27.942708333333332  0 27.549999999999976  L 0 24.649999999999988  C 0 24.257291666666692  0.09895833333331439 23.917447916666692  0.296875 23.630468749999988  C 0.4947916666666856 23.343489583333344  0.7291666666666856 23.200000000000024  1 23  L 23 23  C 23.270833333333314 23.200000000000024  23.505208333333314 23.343489583333344  23.703125 23.630468749999988  Z M 23.703125 12.030468749999976  C 23.901041666666686 12.31744791666668  24 12.65729166666668  24 13.049999999999976  L 24 15.950000000000024  C 24 16.342708333333324  23.901041666666686 16.682552083333324  23.703125 16.969531250000024  C 23.505208333333314 17.256510416666668  23.270833333333314 17.399999999999988  23 17.399999999999988  C 23 17.399999999999988  1.2708333333333144 17.399999999999988  1 17.399999999999988  C 0.7291666666666856 17.399999999999988  0.4947916666666856 17.256510416666668  0.296875 16.969531250000024  C 0.09895833333331439 16.682552083333324  0 16.342708333333324  0 15.950000000000024  L 0 13.049999999999976  C 0 12.65729166666668  0.09895833333331439 12.31744791666668  0.296875 12.030468749999976  C 0.4947916666666856 11.743489583333334  0.7291666666666856 11.600000000000012  1 12  L 11 12  L 23 11.600000000000012  C 23.270833333333314 11.600000000000012  23.505208333333314 11.743489583333334  23.703125 12.030468749999976  Z M 23.703125 0.43046875000002444  C 23.901041666666686 0.7174479166666666  24 1.0572916666666667  24 1.4500000000000244  L 24 4.350000000000012  C 24 4.742708333333309  23.901041666666686 5.082552083333309  23.703125 5.369531250000012  C 23.505208333333314 5.656510416666654  23.270833333333314 5.799999999999975  23 6  L 1 6  C 0.7291666666666856 5.799999999999975  0.4947916666666856 5.656510416666654  0.296875 5.369531250000012  C 0.09895833333331439 5.082552083333309  0 4.742708333333309  0 4.350000000000012  L 0 1.4500000000000244  C 0 1.0572916666666667  0.09895833333331439 0.7174479166666666  0.296875 0.43046875000002444  C 0.4947916666666856 0.14348958333332112  0.7291666666666856 0  1 0  L 23 0  C 23.270833333333314 0  23.505208333333314 0.14348958333332112  23.703125 0.43046875000002444  Z " fill-rule="nonzero" fill="#000000" stroke="none" transform="matrix(1 0 0 1 437 345 )" />
  </g>
</svg>